<?xml version="1.0" encoding="utf-8"?>
<svg xmlns="http://www.w3.org/2000/svg" height="512pt" version="1.1" viewBox="0 0 512 512" width="512pt">
<path d="M 0.00 0.00 L 512.00 0.00 L 512.00 512.00 L 0.00 512.00 L 0.00 0.00 Z" fill="transparent" opacity="1.00" stroke="transparent" stroke-width="0.25"/>
<path d="M 115.49 125.45 C 154.77 85.29 211.85 63.30 267.92 66.55 C 290.63 67.80 313.11 73.13 334.00 82.11 C 384.19 104.01 425.21 147.38 441.82 199.84 C 449.90 224.64 452.34 251.19 449.44 277.08 C 444.32 321.00 423.14 362.75 390.96 393.03 C 371.34 411.35 347.68 425.67 321.82 433.13 C 322.92 431.77 324.22 430.58 325.74 429.71 C 342.82 419.39 360.33 409.54 375.70 396.71 C 399.95 377.06 418.69 350.98 430.28 322.04 C 439.14 299.84 443.70 275.86 443.05 251.94 C 442.29 225.89 436.09 199.90 424.21 176.65 C 413.85 156.19 399.73 137.62 382.56 122.41 C 368.78 110.26 353.57 99.56 336.81 91.93 C 311.61 80.19 283.79 73.97 255.96 74.32 C 229.45 74.06 203.21 80.48 178.90 90.77 C 138.56 108.48 104.60 140.88 86.06 180.95 C 73.27 208.49 67.46 239.32 69.95 269.62 C 73.54 315.95 96.59 360.06 131.42 390.62 C 151.35 408.92 175.73 421.08 198.71 434.98 C 191.70 433.98 185.15 431.04 178.58 428.55 C 156.27 419.17 135.51 405.76 118.38 388.62 C 93.50 364.17 75.58 332.79 66.86 299.04 C 60.65 273.20 59.88 246.02 65.26 219.97 C 72.27 184.46 89.96 151.12 115.49 125.45 Z" fill="#111011" opacity="1.00" stroke="#111011" stroke-width="0.25"/>
<path d="M 255.11 81.03 C 256.80 79.98 258.79 80.82 260.43 81.52 C 262.08 85.46 263.54 89.48 264.58 93.61 C 266.35 94.16 268.18 94.33 270.02 94.41 C 314.15 97.71 356.05 120.00 384.81 153.39 C 404.59 175.95 417.00 204.53 421.49 234.09 C 424.99 253.68 423.52 273.92 418.48 293.11 C 412.72 316.57 402.11 338.98 386.69 357.65 C 380.94 364.93 373.84 370.94 367.50 377.66 C 364.70 378.03 361.89 378.16 359.08 378.16 C 330.74 378.16 302.40 378.19 274.06 378.16 C 272.68 378.10 271.30 377.99 269.93 377.84 C 270.31 376.79 270.33 375.16 271.87 375.24 C 275.24 374.77 278.64 375.00 282.02 375.09 C 295.71 375.27 309.39 374.54 323.07 375.10 C 328.69 374.95 334.37 375.48 339.96 374.77 C 348.04 367.25 356.16 359.67 363.44 351.34 C 383.76 327.63 396.16 297.32 398.58 266.22 C 393.11 267.78 387.85 269.96 382.45 271.72 C 380.48 292.44 373.11 312.72 360.76 329.52 C 352.00 341.98 340.48 352.29 327.99 360.92 C 326.95 361.73 325.59 361.78 324.36 362.06 C 325.73 359.69 327.30 357.32 329.66 355.82 C 357.07 336.98 376.30 305.80 378.80 272.44 C 375.57 273.96 372.18 275.13 368.69 275.90 C 364.57 295.93 356.39 315.50 342.58 330.82 C 328.48 346.61 310.23 358.90 290.01 365.33 C 284.75 366.98 279.33 368.02 273.96 369.23 C 272.84 368.53 271.97 367.61 271.90 366.23 C 297.05 362.26 320.60 349.56 337.95 330.97 C 352.13 316.21 360.59 296.86 364.93 277.05 C 365.99 276.25 366.66 275.17 366.75 273.82 C 382.99 267.32 399.96 262.78 416.24 256.41 C 414.27 255.26 412.22 254.24 410.06 253.53 C 397.77 249.27 385.81 244.12 373.61 239.61 C 370.83 238.64 368.08 237.57 365.50 236.16 C 365.84 233.33 365.67 230.48 365.10 227.70 C 362.56 215.42 358.82 203.29 352.86 192.21 C 343.45 174.30 327.56 160.49 309.85 151.11 C 297.47 144.45 283.73 140.76 269.81 139.12 C 269.85 134.05 271.15 129.09 271.56 124.08 C 267.14 110.62 263.00 97.05 257.94 83.81 C 255.93 84.14 255.79 86.40 255.08 87.92 C 249.98 102.41 245.04 117.02 241.64 132.01 C 240.92 134.48 241.39 137.03 241.72 139.52 C 224.66 142.67 207.96 148.57 193.54 158.34 C 181.65 166.17 171.23 176.28 163.11 187.97 C 153.64 201.68 147.15 217.22 142.55 233.18 C 141.63 236.70 139.19 239.98 135.62 241.13 C 123.47 245.48 111.35 249.93 99.12 254.09 C 97.18 254.68 95.41 255.69 93.79 256.89 C 96.93 257.82 100.01 258.97 103.19 259.81 L 103.87 260.22 C 118.11 264.58 132.52 268.45 146.54 273.50 C 150.43 293.80 159.58 313.21 173.51 328.54 C 185.12 341.45 199.60 351.69 215.54 358.55 C 224.11 362.17 233.15 364.44 242.22 366.38 C 245.88 378.83 249.68 391.25 252.57 403.91 C 253.33 407.55 254.60 411.15 254.22 414.92 C 249.98 402.83 246.22 390.58 242.56 378.30 C 214.02 377.99 185.47 378.32 156.93 378.09 C 153.28 377.99 149.60 378.03 145.98 377.49 C 144.82 375.87 143.44 374.44 142.00 373.09 C 116.16 348.73 98.92 315.72 92.51 280.87 C 87.49 256.74 89.94 231.54 96.96 208.06 C 98.21 203.54 100.02 199.20 101.78 194.86 C 116.80 158.64 145.80 128.65 181.13 111.79 C 202.05 101.37 225.17 95.32 248.50 94.10 C 250.03 94.01 250.06 92.12 250.62 91.08 C 251.95 87.68 252.88 83.98 255.11 81.03 Z" fill="#111011" opacity="1.00" stroke="#111011" stroke-width="0.25"/>
<path d="M 256.83 101.83 C 258.70 108.43 259.32 115.31 260.49 122.06 C 262.57 133.10 263.86 144.28 264.85 155.47 C 266.18 155.41 267.50 155.38 268.84 155.37 C 266.09 159.93 262.40 163.80 259.18 168.01 C 259.20 168.58 259.25 169.72 259.27 170.29 C 287.22 169.17 313.25 186.36 327.72 209.51 C 334.62 220.99 339.14 233.79 341.59 246.94 C 349.63 247.99 357.52 250.15 365.63 250.66 C 364.50 249.15 363.39 247.63 362.37 246.06 C 365.51 246.48 368.08 248.55 371.15 249.25 C 378.13 250.88 385.23 252.04 392.19 253.79 C 393.53 254.25 395.44 254.37 395.82 256.05 C 383.86 259.62 371.88 263.30 359.66 265.82 C 360.38 263.89 361.43 262.08 361.91 260.06 C 355.67 261.35 349.58 263.29 343.35 264.60 C 341.53 275.59 338.76 286.56 333.56 296.48 C 325.10 313.58 310.54 327.30 293.50 335.68 C 282.78 340.67 271.09 343.25 259.31 343.84 C 262.46 346.84 266.59 350.84 264.29 355.63 C 275.96 354.75 287.68 352.39 298.14 346.99 C 319.85 337.13 337.45 318.97 347.21 297.27 C 350.53 290.68 352.23 283.48 354.78 276.61 C 355.81 276.42 356.84 276.25 357.87 276.09 C 357.78 279.98 356.00 283.52 354.98 287.22 C 349.65 303.71 340.32 318.88 327.90 330.97 C 313.80 344.35 296.03 353.91 276.98 357.90 C 274.06 358.60 271.29 360.14 268.19 359.73 C 264.28 376.84 261.84 394.36 256.82 411.18 C 255.28 397.01 253.07 382.93 251.09 368.83 C 250.28 362.74 248.88 356.62 249.85 350.46 C 248.61 350.03 247.37 349.59 246.15 349.14 C 248.91 347.24 252.52 348.13 255.56 346.89 C 256.51 339.53 255.03 332.19 254.44 324.87 C 253.31 314.83 252.93 304.74 252.35 294.66 C 234.97 293.05 219.91 279.61 215.62 262.80 C 200.77 261.12 185.93 259.20 170.99 258.40 C 172.30 263.76 174.21 268.96 175.41 274.36 C 178.48 286.26 184.33 297.38 192.05 306.91 C 200.11 316.33 209.39 325.00 220.61 330.52 C 230.80 335.99 242.29 338.52 253.76 339.38 C 253.74 340.79 253.71 342.21 253.69 343.63 C 241.85 342.53 229.98 340.06 219.39 334.48 C 193.61 321.15 174.21 295.56 169.58 266.76 C 165.30 265.44 161.30 263.40 157.13 261.80 C 153.71 260.42 150.00 260.21 146.43 259.45 C 146.76 261.16 147.11 262.87 147.48 264.58 C 137.91 262.56 128.54 259.70 118.97 257.68 C 116.46 257.00 113.67 256.72 111.63 254.97 C 120.43 253.22 129.31 251.89 138.10 250.13 C 141.65 249.41 144.33 246.58 147.93 246.05 C 147.19 248.18 145.35 249.64 144.12 251.47 C 153.35 250.30 162.60 249.21 171.79 247.72 C 175.23 224.73 187.93 203.49 206.02 189.01 C 219.68 177.97 236.75 170.82 254.40 170.23 C 254.36 169.43 254.29 167.83 254.26 167.02 C 252.38 165.43 250.06 163.79 249.74 161.15 C 249.45 155.10 250.06 149.04 249.86 142.98 C 249.61 136.27 250.90 129.65 252.03 123.07 C 253.17 115.90 254.70 108.78 256.83 101.83 Z" fill="#111011" opacity="1.00" stroke="#111011" stroke-width="0.25"/>
<path d="M 218.84 109.02 C 227.67 106.75 236.75 105.76 245.79 104.73 C 245.27 107.43 244.64 110.16 243.41 112.64 C 226.92 114.94 210.43 118.53 195.18 125.42 C 166.50 137.57 141.19 159.01 126.99 187.00 C 117.70 205.32 113.33 225.79 112.12 246.20 C 108.62 247.36 105.21 248.81 101.66 249.80 C 102.20 224.17 109.45 198.66 122.95 176.83 C 135.83 155.90 154.25 138.54 175.56 126.37 C 189.16 118.76 203.73 112.85 218.84 109.02 Z" fill="#fbfbfb" opacity="1.00" stroke="#fbfbfb" stroke-width="0.25"/>
<path d="M 268.70 104.53 C 286.46 106.13 304.15 109.94 320.40 117.45 C 351.07 130.71 377.20 154.18 393.77 183.19 C 404.93 203.85 410.56 227.25 411.43 250.64 C 408.32 249.43 405.20 248.26 401.98 247.36 C 401.11 223.19 394.24 199.07 381.42 178.49 C 358.45 141.89 317.75 117.70 274.97 113.19 C 273.62 113.01 272.29 112.77 270.97 112.50 C 270.25 109.83 269.18 107.26 268.70 104.53 Z" fill="#fbfbfb" opacity="1.00" stroke="#fbfbfb" stroke-width="0.25"/>
<path d="M 148.47 160.42 C 172.55 133.96 207.34 118.44 242.69 114.98 C 242.08 117.94 241.07 120.79 240.00 123.60 C 201.27 128.13 163.49 149.48 143.72 183.73 C 134.60 200.91 131.01 220.56 130.38 239.85 C 125.40 241.37 120.60 243.43 115.59 244.84 C 116.85 214.12 128.05 183.59 148.47 160.42 Z" fill="#fbfbfb" opacity="1.00" stroke="#fbfbfb" stroke-width="0.25"/>
<path d="M 271.99 115.10 C 322.44 118.71 369.89 152.46 388.62 199.66 C 394.38 214.33 398.14 229.96 398.68 245.75 C 393.24 243.91 387.95 241.66 382.52 239.81 C 382.25 216.07 375.63 191.92 361.47 172.63 C 354.67 163.23 346.48 154.81 337.03 148.06 C 319.06 134.29 297.28 125.65 274.76 123.35 C 273.85 120.60 272.89 117.86 271.99 115.10 Z" fill="#fbfbfb" opacity="1.00" stroke="#fbfbfb" stroke-width="0.25"/>
<path d="M 274.55 126.50 C 297.56 128.48 319.55 138.11 337.55 152.42 C 349.27 161.65 359.24 173.24 366.35 186.38 C 374.44 202.33 379.03 220.19 379.17 238.08 C 376.05 237.97 372.90 235.71 369.62 235.14 C 366.41 213.35 359.42 191.23 344.67 174.40 C 335.70 163.38 324.01 154.87 311.52 148.26 C 299.62 141.90 286.45 138.22 273.12 136.46 C 273.36 133.11 273.88 129.79 274.55 126.50 Z" fill="#fbfbfb" opacity="1.00" stroke="#fbfbfb" stroke-width="0.25"/>
<path d="M 151.39 177.42 C 171.77 148.69 205.29 130.61 240.01 126.63 C 239.17 130.12 238.72 133.70 238.70 137.30 C 213.29 141.31 189.34 154.00 171.54 172.55 C 157.70 187.29 148.20 205.64 141.81 224.70 C 140.87 228.19 140.36 231.80 139.22 235.24 C 137.91 236.75 136.03 237.59 134.40 238.69 C 133.24 236.56 133.90 234.07 134.01 231.77 C 134.93 218.37 138.00 205.12 142.85 192.59 C 144.94 187.14 148.17 182.25 151.39 177.42 Z" fill="#fbfbfb" opacity="1.00" stroke="#fbfbfb" stroke-width="0.25"/>
<path d="M 270.40 146.21 C 278.81 146.66 286.98 149.20 294.84 152.12 C 316.09 160.68 334.92 175.91 346.41 195.86 C 353.52 207.98 356.78 221.91 358.31 235.76 C 357.35 235.75 355.43 235.74 354.48 235.74 C 354.95 230.86 353.41 226.14 352.38 221.44 C 350.09 211.22 346.34 201.20 340.38 192.54 C 326.58 172.12 304.91 157.33 281.08 151.22 C 277.51 150.20 273.67 150.02 270.30 148.36 C 270.32 147.82 270.37 146.75 270.40 146.21 Z" fill="#111011" opacity="1.00" stroke="#111011" stroke-width="0.25"/>
<path d="M 173.76 188.60 C 190.16 166.64 214.86 150.42 242.23 146.56 C 242.42 147.54 242.60 148.52 242.78 149.50 C 239.25 150.72 235.55 151.25 231.95 152.19 C 216.58 156.52 202.15 164.35 190.42 175.22 C 172.30 191.39 160.65 213.37 152.31 235.89 C 151.57 235.41 150.11 234.46 149.38 233.99 C 155.93 218.10 162.99 202.15 173.76 188.60 Z" fill="#111011" opacity="1.00" stroke="#111011" stroke-width="0.25"/>
<path d="M 231.49 158.27 C 234.65 156.76 237.88 155.00 241.52 155.46 C 241.53 156.33 241.55 157.19 241.56 158.07 C 226.73 163.73 211.92 170.30 199.91 180.94 C 184.88 193.73 173.87 210.65 165.73 228.50 C 164.22 231.18 163.61 234.50 161.20 236.59 C 160.50 236.07 159.80 235.56 159.09 235.06 C 161.39 228.47 164.97 222.46 168.02 216.22 C 175.37 202.52 184.50 189.54 196.33 179.34 C 206.65 170.26 218.74 163.31 231.49 158.27 Z" fill="#111011" opacity="1.00" stroke="#111011" stroke-width="0.25"/>
<path d="M 270.31 155.52 C 287.92 157.45 304.27 166.00 317.77 177.21 C 331.47 188.86 342.78 203.52 349.76 220.15 C 351.77 225.14 353.37 230.34 353.99 235.71 C 352.92 235.62 351.86 235.53 350.81 235.43 C 347.39 219.51 338.85 205.01 328.38 192.69 C 316.39 179.19 301.52 167.58 284.06 162.25 C 279.64 160.71 274.97 160.00 270.63 158.26 C 270.55 157.58 270.39 156.21 270.31 155.52 Z" fill="#111011" opacity="1.00" stroke="#111011" stroke-width="0.25"/>
<path d="M 258.21 174.39 C 277.97 173.41 297.39 181.89 311.34 195.67 C 325.67 209.09 333.89 227.95 337.38 247.02 C 337.97 247.11 339.17 247.30 339.76 247.39 C 340.29 250.04 340.62 252.71 340.91 255.40 C 338.41 254.40 335.67 254.72 333.05 254.58 C 320.91 254.20 308.78 253.63 296.63 253.63 C 296.87 233.65 279.40 216.33 259.87 214.54 C 259.74 201.14 258.60 187.78 258.21 174.39 Z" fill="#fbfbfb" opacity="1.00" stroke="#fbfbfb" stroke-width="0.25"/>
<path d="M 220.19 184.11 C 230.75 178.47 242.44 174.43 254.53 174.38 C 254.15 187.81 252.03 201.12 251.71 214.56 C 232.31 216.54 215.51 233.92 215.49 253.62 C 200.76 253.45 186.07 254.75 171.34 254.76 C 171.35 252.58 171.38 250.41 171.48 248.23 C 172.83 247.64 174.18 247.02 175.51 246.37 C 178.05 237.18 180.69 227.90 185.46 219.57 C 193.50 204.88 205.59 192.38 220.19 184.11 Z" fill="#fbfbfb" opacity="1.00" stroke="#fbfbfb" stroke-width="0.25"/>
<path d="M 231.68 227.51 C 241.38 218.77 255.95 215.98 268.20 220.51 C 282.18 224.96 292.84 238.83 292.65 253.63 C 290.96 253.62 289.28 253.61 287.59 253.62 C 287.53 242.55 280.66 232.00 270.73 227.22 C 259.31 221.22 244.41 223.06 234.81 231.67 C 228.37 237.38 224.11 245.85 224.69 254.58 C 223.05 253.68 221.16 253.63 219.34 253.57 C 219.46 243.66 224.32 234.05 231.68 227.51 Z" fill="#fbfbfb" opacity="1.00" stroke="#fbfbfb" stroke-width="0.25"/>
<path d="M 245.85 228.74 C 252.79 226.39 260.64 226.43 267.40 229.34 C 277.28 233.07 284.16 243.13 284.34 253.67 C 277.70 253.87 271.06 253.67 264.41 253.74 C 262.33 250.65 259.02 247.61 254.97 248.53 C 251.93 248.76 250.07 251.23 248.51 253.54 C 241.60 253.93 234.63 253.80 227.70 253.61 C 228.24 242.63 235.45 232.47 245.85 228.74 Z" fill="#fbfbfb" opacity="1.00" stroke="#fbfbfb" stroke-width="0.25"/>
<path d="M 286.89 260.30 C 288.80 260.07 290.72 259.89 292.65 259.75 C 290.35 280.54 266.94 295.39 246.98 289.69 C 233.23 286.14 221.82 274.42 219.33 260.33 C 221.29 260.26 223.26 260.25 225.23 260.30 C 226.91 270.18 234.30 278.87 243.58 282.56 C 255.94 287.67 271.45 284.41 280.23 274.19 C 283.74 270.33 286.13 265.46 286.89 260.30 Z" fill="#fbfbfb" opacity="1.00" stroke="#fbfbfb" stroke-width="0.25"/>
<path d="M 296.15 263.40 C 310.84 260.95 325.72 259.65 340.57 258.54 C 338.76 266.27 337.51 274.15 335.03 281.71 C 330.01 297.77 320.17 312.44 306.65 322.56 C 292.86 333.76 275.03 339.50 257.34 339.53 C 257.84 324.61 259.98 309.78 259.83 294.84 C 276.69 292.72 292.26 280.23 296.15 263.40 Z" fill="#fbfbfb" opacity="1.00" stroke="#fbfbfb" stroke-width="0.25"/>
<path d="M 228.67 259.79 C 235.47 260.02 242.28 259.83 249.08 260.17 C 251.86 261.71 254.57 264.37 258.07 263.25 C 260.85 263.07 262.07 259.66 264.93 259.98 C 271.18 259.81 277.44 259.98 283.70 259.86 C 281.56 273.07 268.04 282.29 255.05 281.59 C 242.85 281.33 230.42 272.23 228.67 259.79 Z" fill="#fbfbfb" opacity="1.00" stroke="#fbfbfb" stroke-width="0.25"/>
<path d="M 401.83 264.92 C 405.13 264.05 408.35 262.93 411.62 261.94 C 411.17 286.97 403.98 311.83 391.35 333.43 C 382.46 349.12 370.41 362.86 356.81 374.62 C 353.11 375.90 348.83 374.73 344.92 375.16 C 345.95 373.23 347.79 371.97 349.30 370.45 C 355.76 364.19 362.39 358.05 368.03 351.01 C 387.81 326.73 399.90 296.18 401.83 264.92 Z" fill="#fbfbfb" opacity="1.00" stroke="#fbfbfb" stroke-width="0.25"/>
<path d="M 101.48 262.97 C 104.98 263.88 108.37 265.17 111.88 266.04 C 113.88 288.86 120.92 311.32 133.09 330.78 C 142.90 346.91 155.02 361.49 167.99 375.16 C 164.00 375.01 159.99 375.37 156.02 374.91 C 153.08 372.95 151.04 369.91 148.46 367.51 C 133.92 351.86 122.18 333.64 113.71 314.03 C 106.95 297.78 103.06 280.47 101.48 262.97 Z" fill="#fbfbfb" opacity="1.00" stroke="#fbfbfb" stroke-width="0.25"/>
<path d="M 115.36 267.20 C 120.25 268.25 124.95 270.00 129.73 271.41 C 134.00 296.85 144.75 321.51 162.37 340.55 C 169.26 348.11 177.02 354.87 185.48 360.63 C 186.51 361.36 187.78 361.58 188.98 361.92 C 188.57 358.02 184.49 356.40 181.88 354.10 C 155.76 334.62 138.30 304.43 133.40 272.31 C 136.75 273.61 140.20 274.58 143.65 275.54 C 149.10 302.94 164.36 328.42 186.65 345.40 C 202.12 357.75 220.84 365.58 240.22 369.28 C 240.79 371.23 241.31 373.19 241.74 375.19 C 223.17 375.11 204.61 374.83 186.03 374.90 C 181.33 374.79 176.61 375.15 171.93 374.64 C 161.10 362.55 149.80 350.71 141.05 336.97 C 126.74 316.42 117.42 292.21 115.36 267.20 Z" fill="#fbfbfb" opacity="1.00" stroke="#fbfbfb" stroke-width="0.25"/>
<path d="M 155.23 276.26 C 156.33 276.35 157.44 276.44 158.54 276.54 C 159.26 278.59 157.65 281.17 160.20 282.30 C 164.42 297.94 173.16 312.11 184.12 323.93 C 193.02 332.94 203.43 340.46 214.72 346.18 C 224.50 351.51 235.50 353.75 246.49 354.73 C 246.81 357.00 245.67 359.84 242.99 359.64 C 235.83 357.01 228.16 355.99 221.13 352.96 C 200.90 344.60 182.61 330.75 170.32 312.52 C 163.06 301.54 157.71 289.21 155.23 276.26 Z" fill="#111011" opacity="1.00" stroke="#111011" stroke-width="0.25"/>
</svg>